<svg width="44" height="43" viewBox="0 0 44 43" fill="none" xmlns="http://www.w3.org/2000/svg">
<g filter="url(#filter0_dd_39_38)">
<g clip-path="url(#clip0_39_38)">
<path d="M37.6158 1.48242H5.48376V32.8196H37.6158V1.48242Z" fill="#001D26"/>
<path fill-rule="evenodd" clip-rule="evenodd" d="M4.02319 0.0180664V34.2839H39.0764V0.0180664H4.02319ZM5.48374 1.48242H37.6158V32.8195H5.48374V1.48242Z" fill="#00C8FF"/>
<path fill-rule="evenodd" clip-rule="evenodd" d="M12.4944 8.07267C12.4944 7.99946 12.7135 7.92624 12.7865 7.92624C13.7359 7.85303 15.1234 7.85303 16.5839 7.85303C20.6004 7.85303 22.207 10.0496 22.207 12.9051C22.207 16.6391 19.5051 18.2499 16.2188 18.2499C15.6346 18.2499 15.4885 18.2499 15.0503 18.2499V23.8876C15.0503 24.0341 14.9773 24.0341 14.9043 24.0341H12.6404C12.4944 24.0341 12.4944 23.9609 12.4944 23.8876V8.07267ZM15.0503 15.8337C15.4155 15.8337 15.6346 15.8337 16.2188 15.8337C17.8984 15.8337 19.5051 15.248 19.5051 12.9051C19.5051 11.0746 18.3366 10.1228 16.4379 10.1228C15.8537 10.1228 15.2694 10.1228 15.0503 10.196V15.8337ZM27.684 14.0765C26.5157 14.0765 26.1505 14.6623 26.1505 15.1748C26.1505 15.6874 26.4426 16.0534 27.9762 16.8588C30.24 17.9571 30.9703 19.0553 30.9703 20.5929C30.9703 22.9359 29.2176 24.1805 26.8077 24.1805C25.5663 24.1805 24.4709 23.8876 23.8136 23.5216C23.7406 23.4484 23.6675 23.3751 23.6675 23.3019V21.1786C23.6675 21.0322 23.7406 20.959 23.8136 21.0322C24.763 21.6179 25.7854 21.9108 26.7347 21.9108C27.9032 21.9108 28.3413 21.3983 28.3413 20.7393C28.3413 20.2269 27.9762 19.7143 26.5157 18.9821C24.4709 17.9571 23.5945 17.0052 23.5945 15.3213C23.5945 13.4176 25.0551 11.88 27.6111 11.88C28.8525 11.88 29.7288 12.0996 30.24 12.3193C30.3861 12.3925 30.3861 12.539 30.3861 12.6122V14.589C30.3861 14.7355 30.313 14.8087 30.1671 14.7355C29.5828 14.2962 28.6335 14.0765 27.684 14.0765Z" fill="#00C8FF"/>
</g>
</g>
<defs>
<filter id="filter0_dd_39_38" x="0" y="0" width="44" height="43" filterUnits="userSpaceOnUse" color-interpolation-filters="sRGB">
<feFlood flood-opacity="0" result="BackgroundImageFix"/>
<feColorMatrix in="SourceAlpha" type="matrix" values="0 0 0 0 0 0 0 0 0 0 0 0 0 0 0 0 0 0 127 0" result="hardAlpha"/>
<feOffset dy="4"/>
<feGaussianBlur stdDeviation="2"/>
<feComposite in2="hardAlpha" operator="out"/>
<feColorMatrix type="matrix" values="0 0 0 0 0 0 0 0 0 0 0 0 0 0 0 0 0 0 0.25 0"/>
<feBlend mode="normal" in2="BackgroundImageFix" result="effect1_dropShadow_39_38"/>
<feColorMatrix in="SourceAlpha" type="matrix" values="0 0 0 0 0 0 0 0 0 0 0 0 0 0 0 0 0 0 127 0" result="hardAlpha"/>
<feOffset dy="4"/>
<feGaussianBlur stdDeviation="2"/>
<feComposite in2="hardAlpha" operator="out"/>
<feColorMatrix type="matrix" values="0 0 0 0 0 0 0 0 0 0 0 0 0 0 0 0 0 0 0.25 0"/>
<feBlend mode="normal" in2="effect1_dropShadow_39_38" result="effect2_dropShadow_39_38"/>
<feBlend mode="normal" in="SourceGraphic" in2="effect2_dropShadow_39_38" result="shape"/>
</filter>
<clipPath id="clip0_39_38">
<rect width="36" height="35" fill="white" transform="translate(4)"/>
</clipPath>
</defs>
</svg>
